HIERARCHY
ROOT Hips
{
	OFFSET -0.001795 -0.223333 0.028219
	CHANNELS 6 Xposition Yposition Zposition Zrotation Yrotation Xrotation 
	JOINT LeftUpLeg
	{
		OFFSET 0.069520 -0.091406 -0.006815
		CHANNELS 3 Zrotation Yrotation Xrotation
		JOINT LeftLeg
		{
			OFFSET 0.034277 -0.375199 -0.004496
			CHANNELS 3 Zrotation Yrotation Xrotation
			JOINT LeftFoot
			{
				OFFSET -0.013596 -0.397961 -0.043693
				CHANNELS 3 Zrotation Yrotation Xrotation
				JOINT LeftToe
				{
					OFFSET 0.026358 -0.055791 0.119288
					CHANNELS 3 Zrotation Yrotation Xrotation
					End Site
					{
						OFFSET 0.000000 0.000000 0.000000
					}
				}
			}
		}
	}
	JOINT RightUpLeg
	{
		OFFSET -0.067670 -0.090522 -0.004320
		CHANNELS 3 Zrotation Yrotation Xrotation
		JOINT RightLeg
		{
			OFFSET -0.038290 -0.382569 -0.008850
			CHANNELS 3 Zrotation Yrotation Xrotation
			JOINT RightFoot
			{
				OFFSET 0.015774 -0.398415 -0.042312
				CHANNELS 3 Zrotation Yrotation Xrotation
				JOINT RightToe
				{
					OFFSET -0.025372 -0.048144 0.123348
					CHANNELS 3 Zrotation Yrotation Xrotation
					End Site
					{
						OFFSET 0.000000 0.000000 0.000000
					}
				}
			}
		}
	}
	JOINT Spine
	{
		OFFSET -0.002533 0.108963 -0.026696
		CHANNELS 3 Zrotation Yrotation Xrotation
		JOINT Spine1
		{
			OFFSET 0.005487 0.135180 0.001092
			CHANNELS 3 Zrotation Yrotation Xrotation
			JOINT Spine2
			{
				OFFSET 0.001457 0.052922 0.025425
				CHANNELS 3 Zrotation Yrotation Xrotation
				JOINT Neck
				{
					OFFSET -0.002778 0.213870 -0.042857
					CHANNELS 3 Zrotation Yrotation Xrotation
					JOINT Head
					{
						OFFSET 0.005152 0.064970 0.051349
						CHANNELS 3 Zrotation Yrotation Xrotation
						End Site
						{
							OFFSET 0.000000 0.000000 0.000000
						}
					}
				}
				JOINT LeftShoulder
				{
					OFFSET 0.078845 0.121749 -0.034090
					CHANNELS 3 Zrotation Yrotation Xrotation
					JOINT LeftArm
					{
						OFFSET 0.090977 0.030469 -0.008868
						CHANNELS 3 Zrotation Yrotation Xrotation
						JOINT LeftForeArm
						{
							OFFSET 0.259612 -0.012772 -0.027456
							CHANNELS 3 Zrotation Yrotation Xrotation
							JOINT LeftHand
							{
								OFFSET 0.249234 0.008986 -0.001171
								CHANNELS 3 Zrotation Yrotation Xrotation
								End Site
								{
									OFFSET 0.000000 0.000000 0.000000
								}
							}
						}
					}
				}
				JOINT RightShoulder
				{
					OFFSET -0.081759 0.118833 -0.038615
					CHANNELS 3 Zrotation Yrotation Xrotation
					JOINT RightArm
					{
						OFFSET -0.096012 0.032551 -0.009143
						CHANNELS 3 Zrotation Yrotation Xrotation
						JOINT RightForeArm
						{
							OFFSET -0.253742 -0.013329 -0.021401
							CHANNELS 3 Zrotation Yrotation Xrotation
							JOINT RightHand
							{
								OFFSET -0.255298 0.007772 -0.005559
								CHANNELS 3 Zrotation Yrotation Xrotation
								End Site
								{
									OFFSET 0.000000 0.000000 0.000000
								}
							}
						}
					}
				}
			}
		}
	}
}
MOTION
Frames: 5
Frame Time: 0.050000
0.000000 0.628266 0.000000 -1.413989 -4.011310 -14.144582 23.518400 8.387558 -55.477134 -12.390685 10.697392 87.791917 8.294344 17.742032 13.032863 0.000000 0.000000 0.000000 -23.393172 -4.489668 -53.617276 21.702190 -18.257918 88.682150 -19.927454 -31.531087 41.462284 0.000000 0.000000 0.000000 5.086486 -3.796654 53.922091 -9.227587 2.404180 -35.561869 -1.886574 4.686529 22.724015 11.509996 -3.879229 -32.099210 0.000000 0.000000 0.000000 -26.381026 -32.499298 16.757376 -21.605200 -34.637257 1.796055 47.994639 -54.259177 -23.991645 0.000000 0.000000 0.000000 33.774881 20.215087 13.137076 24.537963 37.508891 2.502053 -42.931471 46.963218 -16.671627 0.000000 0.000000 0.000000 
0.000447 0.631277 0.003987 -1.908943 -5.500993 -13.774475 23.375730 8.852027 -55.251540 -10.406614 9.260787 90.034850 6.886574 15.298106 9.703820 0.000000 0.000000 0.000000 -23.449844 -4.006625 -53.774031 23.127893 -19.406190 88.784894 -17.066443 -29.561814 36.361293 0.000000 0.000000 0.000000 5.367205 -3.569954 53.797781 -9.444935 2.291566 -37.868172 -0.863841 5.618896 23.473072 12.521825 -4.495174 -31.819243 0.000000 0.000000 0.000000 -26.950380 -32.278864 16.722149 -20.862701 -34.647600 1.611219 52.856751 -56.379133 -28.024685 0.000000 0.000000 0.000000 34.822590 19.130864 12.786633 22.271790 37.643955 1.885869 -43.759189 48.133410 -17.614132 0.000000 0.000000 0.000000 
0.001227 0.632832 0.008057 -1.617208 -5.126471 -15.280311 23.332650 8.397524 -53.460994 -10.474889 9.101090 89.574340 6.234222 14.439152 11.222040 0.000000 0.000000 0.000000 -22.586666 -3.645039 -51.948916 20.829667 -16.897255 89.755615 -15.702267 -27.947616 37.691571 0.000000 0.000000 0.000000 5.902283 -3.623347 50.244047 -7.346206 2.207548 -32.452823 -3.683303 6.459291 20.819124 14.866558 -6.226859 -29.178142 0.000000 0.000000 0.000000 -27.179477 -31.968156 16.039789 -21.774203 -34.831742 2.050376 54.164377 -55.589787 -28.679295 0.000000 0.000000 0.000000 37.064351 20.095645 14.237880 18.801200 37.364957 1.178796 -42.786996 46.288622 -16.658741 0.000000 0.000000 0.000000 
0.002207 0.634921 0.012426 -1.538742 -6.420582 -16.486165 23.058328 8.509556 -51.984452 -9.322473 8.394562 91.122853 6.080582 14.227477 11.415590 0.000000 0.000000 0.000000 -22.005678 -2.948965 -51.005864 20.092810 -15.574045 90.971497 -12.074923 -24.293829 35.253531 0.000000 0.000000 0.000000 6.544312 -3.572544 50.042851 -8.433948 2.402002 -33.084059 -3.251990 6.496163 21.618412 14.222354 -5.675938 -30.381373 0.000000 0.000000 0.000000 -25.446368 -31.857473 15.695995 -22.498760 -36.377471 2.354822 55.727487 -54.262366 -28.840505 0.000000 0.000000 0.000000 36.572639 19.571692 13.472805 18.944442 37.423307 1.271825 -43.459656 48.271789 -17.888557 0.000000 0.000000 0.000000 
0.003166 0.634768 0.016969 -1.114258 -7.069112 -17.707509 23.106476 8.507497 -50.244617 -8.734272 8.054443 91.727265 4.977227 12.478414 11.268965 0.000000 0.000000 0.000000 -22.069015 -2.716465 -49.306011 19.933568 -14.837349 91.260848 -11.550701 -23.849720 32.914315 0.000000 0.000000 0.000000 6.084820 -3.065917 48.003107 -7.840421 2.379728 -30.900594 -3.346605 7.127123 20.765681 14.197663 -5.744394 -29.347970 0.000000 0.000000 0.000000 -25.575793 -32.387624 15.871735 -22.443960 -36.507554 2.486493 52.351168 -52.002009 -25.718016 0.000000 0.000000 0.000000 37.322534 19.645975 13.692519 19.227675 36.596845 1.289001 -42.157992 47.084517 -16.817453 0.000000 0.000000 0.000000 
